# xmcd
#
# Track frame offsets: 
#        182
#        13545
#        28377
#        43972
#        63197
#        77992
#        93167
#        110227
#        125475
#        139657
#
# Disc length: 2074 seconds
#
# Revision: 5
# Processed by: cddbd v1.5.1PL0 Copyright (c) Steve Scherf et al.
# Submitted via: ExactAudioCopy v0.95a5
#
DISCID=8a08180a
DTITLE=Blackhawk - Strong Enough
DYEAR=1995
DGENRE=Country
TTITLE0=Big Guitar
TTITLE1=Like There Ain't No Yesterday
TTITLE2=Cast Iron Heart
TTITLE3=I'm Not Strong Enough To Say No
TTITLE4=Almost A Memory Now
TTITLE5=King Of The World
TTITLE6=Bad Love Gone Good
TTITLE7=Any Man With A Heartbeat
TTITLE8=A Kiss Is Worth A Thousand Words
TTITLE9=Hook, Line And Sinker
EXTD=
EXTT0=
EXTT1=
EXTT2=
EXTT3=
EXTT4=
EXTT5=
EXTT6=
EXTT7=
EXTT8=
EXTT9=
PLAYORDER=
